<svg version="1.1" id="Layer_1" xmlns="http://www.w3.org/2000/svg" xmlns:xlink="http://www.w3.org/1999/xlink" x="0px" y="0px"
	 width="100%" viewBox="0 0 672 1024" enable-background="new 0 0 672 1024" xml:space="preserve">
<path fill="#000000" opacity="1.000000" stroke="none" 
	d="
M513.722656,499.835938 
	C502.094971,505.310883 503.889496,502.118042 507.101379,514.597839 
	C511.242096,530.686523 516.961670,546.373047 522.112915,562.196411 
	C529.632996,585.296265 536.908752,608.462646 540.750549,632.526062 
	C544.893433,658.476074 545.961548,684.542175 541.445801,710.508423 
	C539.305908,722.813477 543.205627,733.864868 546.379822,745.124451 
	C555.622070,777.908936 561.989563,811.126831 562.218689,845.304871 
	C562.265442,852.272217 561.719238,859.279053 560.210632,866.121582 
	C558.236511,875.075562 552.979370,881.851562 545.251953,886.500427 
	C525.846558,898.174866 504.556122,901.452454 482.313354,899.860779 
	C480.017548,899.696472 478.118195,899.371948 476.570129,901.527771 
	C475.472717,903.056152 474.671753,905.578003 472.182587,904.847168 
	C469.487427,904.055847 471.685333,901.225586 470.483734,899.428406 
	C467.051056,897.977539 463.150879,898.151062 459.430389,897.466858 
	C456.836548,896.989868 455.739197,899.245544 454.598175,901.108643 
	C453.732452,902.522156 452.924774,903.984619 451.922668,905.296509 
	C451.290161,906.124573 450.254608,906.444275 449.236572,905.867493 
	C448.208282,905.284912 448.076263,904.322693 448.422791,903.276672 
	C449.097504,901.239929 450.148438,899.288513 449.779480,896.737976 
	C446.156860,895.477539 442.231262,893.380737 438.490265,894.981995 
	C435.198517,896.390930 435.016693,901.652588 431.069946,903.118225 
	C428.754700,901.163147 430.376648,899.283813 430.823547,897.527466 
	C431.865723,893.431580 430.715302,891.927429 426.521576,892.381775 
	C423.621613,892.695984 421.063721,893.776611 419.232086,896.238098 
	C418.460907,897.274353 417.620239,898.636475 416.010803,897.715759 
	C414.581482,896.898132 414.917816,895.530212 415.184814,894.162048 
	C418.035339,879.554932 424.789795,866.908508 434.647797,855.907349 
	C437.747345,852.448425 441.200562,849.246033 444.819031,846.332520 
	C447.492432,844.179810 447.724762,842.145752 446.825104,838.984070 
	C441.900879,821.678528 430.999268,807.971313 420.359985,794.064209 
	C407.571625,777.348022 396.018372,759.850708 387.631226,740.457703 
	C386.225708,737.207825 384.116852,735.356445 380.837891,734.523743 
	C365.251434,730.565430 350.641449,724.081665 336.296509,716.997498 
	C332.471924,715.108826 329.100250,715.152466 325.358704,716.854553 
	C314.462006,721.811707 305.675659,729.524597 298.538757,738.821411 
	C286.913574,753.964966 280.681458,771.269958 279.192993,790.445251 
	C278.248627,802.610840 278.297363,814.683777 279.036316,826.832520 
	C279.623749,836.490234 278.722443,846.097717 276.503784,855.567200 
	C274.069885,865.955566 267.773102,872.931030 258.075134,877.032593 
	C244.882217,882.612366 230.804031,884.285645 216.814240,886.278137 
	C194.649521,889.434937 172.364136,889.994019 150.025696,888.993530 
	C147.128601,888.863831 144.780289,889.319885 143.573898,892.411682 
	C142.965179,893.971680 142.653198,896.577820 140.148270,895.733704 
	C137.923492,894.984009 138.828827,892.643860 138.905579,890.885193 
	C138.941147,890.069641 139.105103,889.259827 139.271103,887.984436 
	C136.000229,887.154846 132.850601,886.323669 129.684021,885.563110 
	C127.193489,884.965027 126.152977,886.856812 124.933952,888.437073 
	C123.477325,890.325134 122.004158,892.238037 119.212135,890.549988 
	C118.345703,888.230530 120.513718,886.437622 120.178764,884.264587 
	C113.294464,879.404846 111.622963,879.685486 107.588295,886.540771 
	C106.803520,887.874207 106.165802,889.433228 104.323509,888.980164 
	C102.406754,888.508911 102.688263,886.748535 102.713264,885.258301 
	C102.718834,884.926514 102.799583,884.596313 102.812477,884.264160 
	C102.907509,881.815613 105.408737,878.924194 102.111832,877.069458 
	C98.821205,875.218079 95.735985,876.590332 92.785286,878.521484 
	C91.396172,879.430603 90.100357,881.870605 88.139641,880.316528 
	C85.854820,878.505676 87.626465,876.289307 88.582710,874.477905 
	C98.028748,856.583923 112.050438,843.109497 129.287918,832.845398 
	C140.056152,826.433411 151.304016,820.980347 163.450943,817.712463 
	C167.325256,816.670166 168.165207,815.002136 166.863586,811.313110 
	C161.879501,797.187134 156.452133,783.220764 152.084564,768.871521 
	C144.892532,745.242920 141.090866,721.144714 142.915314,696.483398 
	C144.298645,677.784546 149.358231,659.864441 156.984802,642.666260 
	C166.982956,620.120300 179.282654,598.692810 189.203369,576.126282 
	C193.461746,566.439819 198.512344,556.744202 196.485931,545.501587 
	C194.979416,537.143311 194.548172,528.667236 193.524994,520.261108 
	C192.452026,511.445862 192.614014,502.634003 192.671631,493.820404 
	C192.701141,489.306946 191.266953,486.782379 186.635498,485.689850 
	C170.088547,481.786530 154.022903,476.257263 138.032761,470.548431 
	C134.546082,469.303619 132.550476,469.871460 130.774445,473.133667 
	C125.710274,482.435486 118.504120,489.722290 109.084976,494.620544 
	C105.677567,496.392517 106.478394,499.213287 106.466690,501.962616 
	C106.453865,504.974121 108.522842,509.388977 104.989555,510.484924 
	C101.175140,511.668030 100.728638,506.740112 99.432434,504.163513 
	C98.193451,501.700714 96.904388,501.123077 94.337982,501.949615 
	C92.020149,502.696075 89.117393,502.325439 89.336006,506.086578 
	C89.480804,508.577545 89.356239,511.087128 89.567474,513.570068 
	C89.672325,514.802490 90.012970,515.985657 88.484962,516.406128 
	C87.132126,516.778442 86.289093,515.886475 85.706276,514.801514 
	C84.997658,513.482483 84.072121,512.190247 83.747002,510.770477 
	C82.437637,505.052429 78.753036,504.538208 73.437515,506.066162 
	C74.275467,509.974335 75.102386,513.802795 75.914833,517.634277 
	C76.239113,519.163513 76.455345,520.738525 74.524399,521.356201 
	C72.778694,521.914673 72.169006,520.473816 71.595749,519.307434 
	C70.003410,516.067444 68.501167,512.783142 66.635803,508.820587 
	C59.868824,514.380615 67.270943,521.107544 64.515327,526.400757 
	C61.803898,526.583130 61.482620,524.560120 60.624680,523.008667 
	C49.536846,502.957825 48.956486,481.827850 55.567699,460.583038 
	C68.922882,417.666748 97.761925,390.206390 140.855225,377.672180 
	C145.158096,376.420624 149.426788,374.964752 153.963486,374.615814 
	C158.380371,374.276093 160.624435,370.969452 162.419968,367.584839 
	C165.930588,360.967133 169.258957,354.242859 172.400330,347.441467 
	C177.079361,337.310913 181.742844,327.163544 186.031631,316.864532 
	C193.105286,299.878082 205.108566,287.042053 219.137344,275.622498 
	C227.268250,269.003876 235.012329,261.813568 239.866150,252.212494 
	C243.822708,244.386246 243.647903,243.918274 235.584152,240.867157 
	C220.623306,235.206329 208.219696,226.516541 200.624496,211.948349 
	C196.106491,203.282455 196.008987,193.654129 194.901749,184.339264 
	C194.239426,178.767380 197.549789,174.137115 202.236954,170.917038 
	C210.199875,165.446518 218.146179,159.944794 226.257233,154.700180 
	C229.736908,152.450226 230.819611,149.893356 229.537827,145.938293 
	C226.509766,136.595047 228.892258,128.270920 234.563187,120.556335 
	C238.209717,115.595680 241.335190,110.223740 246.499725,106.566971 
	C249.099579,104.726120 248.820969,102.014641 248.695038,99.320404 
	C248.300156,90.871811 248.710281,82.554329 254.476883,75.665337 
	C265.525757,62.466042 281.675568,60.943687 295.731781,72.170822 
	C299.443817,75.135727 302.483795,76.082794 307.240265,75.077118 
	C323.715759,71.593628 340.268524,70.857101 356.488312,76.694130 
	C359.014557,77.603249 360.117401,76.292587 361.432709,74.652245 
	C371.988708,61.487328 384.804993,57.811123 400.514648,63.385956 
	C408.858826,66.347031 416.848480,78.886612 417.302460,89.389206 
	C417.566986,95.508636 416.712463,101.402054 413.997467,106.859367 
	C412.558929,109.750816 413.090546,111.594383 415.222504,113.864693 
	C437.257721,137.329498 450.898743,165.066467 456.765839,196.643768 
	C458.160400,204.149323 459.223236,211.726532 460.156128,219.305557 
	C461.596222,231.005188 468.186157,238.920319 477.728271,245.213715 
	C488.696869,252.447983 499.835510,259.455261 509.420441,268.652130 
	C532.702026,290.991119 547.027771,318.901886 559.041931,348.178589 
	C566.302979,365.872498 572.837708,383.847900 576.576782,402.738007 
	C582.212158,431.208557 574.125488,454.950195 552.858154,474.462982 
	C541.325378,485.044342 528.250793,493.204834 513.722656,499.835938 
M378.423248,708.849182 
	C374.970001,693.918274 374.626434,678.687622 375.979034,663.623657 
	C377.965057,641.504517 386.090302,621.658020 401.778656,605.409302 
	C403.152344,603.986572 404.342773,601.909363 406.918304,602.239624 
	C407.782410,604.812744 405.982330,606.236511 404.977081,607.806519 
	C384.460114,639.850586 379.235199,674.297668 388.192932,711.174255 
	C395.098694,739.603271 409.276550,764.274170 426.777191,787.259766 
	C438.507721,802.666870 450.212860,818.043152 456.126984,836.873474 
	C456.267517,837.320923 456.621002,837.701477 456.873901,838.111084 
	C459.924835,837.106323 462.617737,836.268860 465.276917,835.335205 
	C476.441345,831.415405 487.524323,831.788208 498.510254,835.993042 
	C499.796936,836.485535 501.742249,836.925476 501.041138,838.998047 
	C500.467346,840.694336 498.850952,840.099976 497.579865,839.935242 
	C474.167877,836.900391 455.077911,845.134705 439.639374,862.451599 
	C434.019501,868.755188 429.646057,875.931091 426.360443,884.002441 
	C431.489563,885.524841 434.367676,884.438721 436.617493,879.930786 
	C439.368195,874.419067 443.217010,869.495361 448.780975,866.324219 
	C450.114716,865.564087 451.703552,863.731079 453.022491,865.876648 
	C454.161285,867.729126 452.335968,868.951843 450.980377,869.852600 
	C445.203888,873.690674 444.210907,880.100159 441.650726,885.790894 
	C452.777588,889.255127 452.765045,889.248047 457.949097,880.098450 
	C458.768311,878.652588 459.694519,877.255981 460.684540,875.920532 
	C463.687988,871.869568 467.393097,868.511169 471.433807,865.544800 
	C472.687592,864.624329 474.357910,863.097046 475.855072,864.682373 
	C477.594757,866.524475 475.351593,867.550354 474.359802,868.704041 
	C473.493011,869.712219 472.448395,870.565674 471.558990,871.556335 
	C466.971222,876.666199 464.107513,882.679504 461.646881,889.173584 
	C463.452759,889.656982 464.558441,890.002014 465.685883,890.246826 
	C473.841736,892.017334 474.976746,891.508484 479.346130,884.311157 
	C482.722870,878.748840 486.091797,873.169067 491.779633,869.558899 
	C493.183136,868.667969 494.569977,866.216187 496.332031,868.390320 
	C497.798798,870.200073 495.374054,871.169128 494.434448,872.382507 
	C490.001221,878.108032 486.683014,884.418762 483.099854,891.706482 
	C488.420349,891.706482 492.409454,891.896667 496.375244,891.673035 
	C512.021606,890.790833 527.034546,887.608582 540.597046,879.225220 
	C546.119751,875.811340 550.092102,871.121338 551.340576,864.807434 
	C552.986206,856.484741 553.917236,847.971802 553.466980,839.494019 
	C552.222046,816.054260 549.375061,792.812195 543.709534,769.975647 
	C541.335266,760.405151 538.878479,750.866394 535.488220,741.046875 
	C532.378296,745.438232 532.900818,751.064209 528.315186,754.070435 
	C525.748474,751.140076 526.647278,748.092468 527.004761,745.258179 
	C528.957397,729.778381 532.471313,714.570557 534.132324,698.995300 
	C536.684082,675.069397 535.042480,651.543884 530.781311,628.042419 
	C526.851562,606.368713 519.898987,585.523376 513.553345,564.500122 
	C507.840485,545.572998 501.440491,526.884644 494.937195,507.866119 
	C480.298584,512.391541 466.365570,517.698364 455.661835,529.476501 
	C443.078430,543.323120 427.855957,553.221741 409.451233,557.661804 
	C400.235992,559.884827 389.813538,559.600525 384.849701,570.188049 
	C384.508148,570.916504 383.536682,571.214661 382.655731,570.740356 
	C381.580627,570.161560 381.552002,569.145020 381.733704,568.135254 
	C382.231537,565.368408 384.031708,562.939331 383.903839,560.028076 
	C377.297302,554.847900 374.797852,555.113037 369.896362,561.430420 
	C368.876831,562.744446 367.841675,564.059326 366.688507,565.252808 
	C365.674774,566.302063 364.568268,567.696533 362.864502,566.726379 
	C361.270905,565.818909 361.666229,564.100586 361.800964,562.654785 
	C362.100189,559.444214 364.369904,556.966858 365.511139,553.941467 
	C364.517700,553.209961 363.746613,552.597290 362.931915,552.049500 
	C357.353363,548.298645 357.259308,548.315308 353.701202,553.772766 
	C352.791687,555.167908 351.965363,556.617981 351.036407,557.999512 
	C350.290466,559.108887 349.452118,560.406128 347.864990,559.784790 
	C346.019958,559.062500 346.370178,557.411926 346.692963,555.921753 
	C347.044525,554.298767 347.204895,552.562256 347.915375,551.102356 
	C350.306610,546.188660 347.600830,542.646912 345.092133,538.617004 
	C342.479919,540.804443 341.294586,543.597961 339.581055,545.984863 
	C338.694458,547.219849 337.710052,548.542419 335.928192,547.875305 
	C334.250549,547.247253 333.970490,545.644653 334.104218,544.120117 
	C335.591278,527.169128 338.894043,510.909454 350.335358,497.325745 
	C360.256744,485.546539 372.385162,476.586060 385.421173,468.721069 
	C408.570404,454.754608 429.338501,438.035858 446.701996,417.157990 
	C449.601990,413.671021 449.718811,411.266998 447.401642,407.600159 
	C440.285583,396.339325 432.932251,385.200623 427.322205,373.055115 
	C422.794128,363.252014 419.700562,353.148438 420.719635,342.175507 
	C420.984497,339.324158 420.972168,336.332458 424.363739,332.623077 
	C426.695251,361.451965 442.932526,382.324493 457.562103,404.676758 
	C464.848511,399.195892 471.437500,394.045258 479.153717,390.813324 
	C486.503632,387.734802 493.859802,384.472748 503.177795,383.760162 
	C500.954865,387.520782 498.597260,388.178009 496.563232,389.142670 
	C478.602295,397.661163 464.135559,410.493805 451.141174,425.282593 
	C438.347900,439.842438 424.326050,453.103973 408.270355,464.083710 
	C395.483002,472.828400 382.233276,480.860901 369.468506,489.660461 
	C356.243073,498.777618 349.419159,511.730011 344.222961,527.342957 
	C351.368195,521.031372 356.852081,514.071472 366.799561,511.653870 
	C365.334991,517.685791 360.833923,520.103027 358.604553,524.014954 
	C356.196777,528.239929 355.647247,532.880920 354.782257,537.932373 
	C378.967194,521.636841 378.967194,521.636841 383.201538,524.235352 
	C382.926392,526.115417 381.098785,526.110291 379.940643,526.922546 
	C374.690826,530.604675 369.875854,534.700378 368.288666,541.295532 
	C367.863190,543.063416 366.348419,545.220703 368.665161,546.768494 
	C370.933685,548.283997 372.842072,546.923462 374.505981,545.478821 
	C380.725311,540.079041 388.255829,536.713257 395.014404,532.153748 
	C396.073120,531.439575 397.278595,530.252991 398.482574,531.766907 
	C399.595795,533.166748 398.446106,534.275879 397.534058,535.215393 
	C394.748505,538.084961 391.809296,540.810730 389.115326,543.761841 
	C387.526306,545.502502 385.505707,547.179138 385.734619,550.427429 
	C396.900604,551.700562 407.422699,550.276062 417.617401,546.107727 
	C430.509277,540.836548 441.364380,532.704712 450.680084,522.465637 
	C459.658386,512.597412 470.653625,506.043274 483.221069,501.803680 
	C489.524902,499.677124 495.760651,497.274445 501.843994,494.582520 
	C521.024353,486.095032 539.187256,475.940002 553.225708,459.908173 
	C566.473389,444.779297 571.893127,427.403381 568.109497,407.187622 
	C564.126099,385.904449 556.413391,365.901428 548.301025,346.021820 
	C542.633484,332.133301 535.743347,318.819305 528.041138,305.914459 
	C514.683899,283.534668 495.202148,267.658051 473.634613,253.908005 
	C461.081970,245.905212 452.535767,235.220901 450.884399,219.876511 
	C450.315948,214.594223 449.472290,209.338470 448.646942,204.087479 
	C444.950775,180.572571 437.191132,158.609497 423.424927,139.009109 
	C418.377594,131.822693 413.017517,124.869736 406.062653,119.417908 
	C404.410828,120.349411 403.137115,121.135551 401.803253,121.801033 
	C400.431824,122.485268 398.943451,123.040611 397.641266,121.738060 
	C396.150543,120.246895 396.792450,118.669167 397.761993,117.206314 
	C398.589264,115.958229 399.494568,114.760353 400.394958,113.562523 
	C406.024261,106.073593 408.723175,97.770950 407.843231,88.315208 
	C407.082550,80.140999 401.024445,73.313660 393.387360,71.098907 
	C378.309235,66.726234 364.677856,81.313965 363.315125,92.020180 
	C362.994659,94.537918 362.349091,96.918854 359.459869,96.953903 
	C356.685516,96.987579 354.994202,94.479424 355.124115,92.258560 
	C355.497589,85.872841 351.060028,84.977234 346.608856,83.937973 
	C342.224884,82.914398 337.759338,82.377632 333.255280,82.293701 
	C306.389435,81.793060 282.449646,90.090797 261.437683,106.678711 
	C252.941330,113.386192 244.666199,120.463905 239.501480,130.319321 
	C237.152725,134.801239 236.254471,139.345581 239.697220,144.140640 
	C242.422943,142.215347 243.970535,139.935944 243.749847,136.609985 
	C243.617844,134.620178 244.359573,133.353622 246.612488,133.569717 
	C248.566574,133.757156 250.278076,134.230698 250.314926,136.702911 
	C250.337387,138.210938 250.290695,139.685806 249.594620,141.089081 
	C247.212555,145.891266 244.624542,150.540466 240.303543,153.932846 
	C234.314392,158.634842 228.314209,163.322784 222.289612,168.039520 
	C223.304413,169.426468 224.701691,169.387970 225.941254,169.706894 
	C231.394638,171.110031 235.964264,173.550858 237.147369,179.692978 
	C238.920746,188.899399 231.796951,198.375580 222.430374,199.368317 
	C220.998444,199.520096 219.129974,198.980560 218.526459,200.800446 
	C217.911926,202.653625 218.572952,204.422394 220.013763,205.803314 
	C223.322372,208.974396 227.191483,211.275574 231.564926,212.539124 
	C242.419846,215.675262 253.071381,219.617188 264.372894,221.036896 
	C265.922638,221.231567 267.594543,221.585037 267.363373,223.591080 
	C267.168823,225.279221 265.565308,225.304581 264.214478,225.337204 
	C258.871338,225.466293 253.547485,225.394180 248.379868,223.748322 
	C239.378983,220.881592 229.961594,219.272522 221.164871,214.215103 
	C221.366196,222.630005 226.262543,226.635498 232.608307,229.532700 
	C241.433502,233.561905 250.873993,235.761139 260.057831,238.720978 
	C266.641998,240.842957 272.671204,243.949509 277.879822,248.527359 
	C279.188324,249.677383 281.317322,250.807480 280.309296,252.924896 
	C279.274963,255.097565 277.194336,254.137192 275.447357,253.626984 
	C272.893280,252.881042 270.363068,252.035400 267.778992,251.413925 
	C262.677277,250.186905 258.068848,247.196030 252.607880,246.901627 
	C250.630676,251.092194 250.420074,254.865646 252.403717,259.001160 
	C259.729004,274.272888 270.566437,286.831024 282.387207,298.680054 
	C283.799286,300.095551 286.218658,301.037445 285.100830,304.872162 
	C265.242157,297.099274 253.619919,281.386536 243.425110,263.681732 
	C235.418961,273.625153 226.461044,281.815186 217.129929,289.579498 
	C209.044083,296.307617 202.770401,304.380646 198.047958,313.699585 
	C187.665146,334.188324 179.823441,355.855072 168.626160,376.612671 
	C177.450790,381.491486 186.365692,386.135223 191.630737,395.844055 
	C187.803925,395.856049 187.902496,395.710571 185.103836,393.814240 
	C174.402634,386.563019 163.453278,381.557648 149.692764,384.942017 
	C103.191772,396.378845 73.428261,424.590637 61.688347,471.216064 
	C59.170940,481.214020 59.662514,491.453613 60.607372,501.781281 
	C64.198074,500.759277 64.998772,498.818756 64.383904,495.871338 
	C62.437866,486.542877 65.463753,478.131592 69.418388,469.929413 
	C69.985489,468.753204 70.550560,467.402832 72.894485,468.031738 
	C73.797142,469.973511 73.271828,472.177521 72.866577,474.433350 
	C72.073341,478.848907 71.217613,483.267548 70.744423,487.722778 
	C70.097755,493.811218 72.404152,496.622620 78.752419,497.152283 
	C78.327866,486.337738 78.419304,475.503021 86.385468,466.755524 
	C88.751236,468.445007 87.930351,470.049896 87.620079,471.662109 
	C86.739090,476.239899 85.905228,480.822540 86.258286,485.536346 
	C86.497574,488.731110 87.527771,491.403656 90.540703,492.919800 
	C94.067924,494.694702 96.428482,493.379150 96.582260,489.487885 
	C96.713814,486.159119 96.495430,482.812378 96.712341,479.491913 
	C97.268494,470.978363 100.557625,463.320007 104.513657,455.735413 
	C106.804649,465.761322 103.315002,475.934570 105.253006,486.712738 
	C112.458084,482.979492 117.258026,478.002472 121.338158,472.333405 
	C129.307083,461.261108 133.566971,448.797150 134.719864,435.230316 
	C134.851562,433.680511 134.476532,431.384399 136.924255,431.520111 
	C139.010666,431.635803 138.559799,433.822662 138.598038,435.159515 
	C138.797882,442.147949 138.725311,449.155121 137.750961,456.078339 
	C137.368729,458.794250 138.041672,460.022583 140.555862,460.909637 
	C156.247559,466.445953 171.733948,472.561188 188.093796,476.078522 
	C192.176910,476.956421 193.031921,475.434784 193.656204,472.129242 
	C200.138412,437.806732 202.468872,402.965363 206.773849,368.371155 
	C208.624374,353.500763 211.572006,338.812683 217.705688,324.980286 
	C218.394348,323.427307 218.589691,321.316071 220.933899,321.277008 
	C222.560547,322.276093 222.097626,323.590607 221.831421,324.902252 
	C221.071732,328.645386 220.269958,332.382599 219.627670,336.146515 
	C215.905197,357.961182 213.616287,379.931396 212.119751,402.010010 
	C211.367569,413.107269 209.997375,424.174896 208.555405,435.210052 
	C206.683273,449.537140 203.772980,463.760529 202.561676,478.134064 
	C200.996536,496.706604 201.696838,515.308228 204.049149,533.890869 
	C209.213394,574.687256 224.474487,611.039978 251.585007,641.963501 
	C284.514679,679.524536 325.711426,704.951904 372.408691,721.859314 
	C375.265533,722.893677 378.215424,724.109131 381.713165,723.587708 
	C380.626404,718.731201 379.614136,714.207581 378.423248,708.849182 
M149.011368,865.564087 
	C150.908829,863.368652 153.337967,861.941345 155.946960,860.779602 
	C157.467377,860.102539 159.156616,859.081238 160.482574,860.806335 
	C161.958328,862.726501 160.010040,863.796692 158.964188,864.946533 
	C154.996674,869.308716 152.792038,874.540039 150.333588,880.394348 
	C152.918213,880.542725 154.552109,880.681091 156.188507,880.723389 
	C170.175430,881.085327 184.146011,881.110901 198.100937,879.716675 
	C214.669250,878.061279 231.210175,876.258606 247.241119,871.508972 
	C263.069824,866.819153 268.774170,859.101868 269.741089,842.618835 
	C270.824463,824.150024 268.427979,805.662170 270.565338,787.189697 
	C273.692108,760.166077 284.483337,737.109497 304.589935,718.545227 
	C308.882538,714.581909 314.185699,712.102417 319.431732,708.060242 
	C263.545929,676.189392 220.992340,633.359314 201.682755,569.706238 
	C191.864975,593.311768 180.469528,614.624268 169.577850,636.168213 
	C151.427750,672.069214 146.851730,709.470947 155.560547,748.689148 
	C160.493713,770.904541 169.624786,791.687256 176.842880,813.122803 
	C177.574142,815.294312 179.135605,815.567993 181.102127,815.753357 
	C186.748917,816.285645 192.297058,817.423889 197.616898,819.420898 
	C199.463837,820.114197 201.975281,820.407227 201.891464,823.737305 
	C160.847473,819.907227 129.243637,837.182068 102.773651,866.497375 
	C107.042793,871.113586 109.537720,869.648682 111.852707,865.649719 
	C115.606529,859.165527 121.760063,855.465576 128.256577,852.286438 
	C129.833954,851.514587 131.636642,850.469727 132.861603,852.874634 
	C132.740784,853.268677 132.735046,853.664246 132.534409,853.865784 
	C132.071426,854.330688 131.569763,854.822510 130.986176,855.091797 
	C124.730042,857.978394 120.992012,863.207703 117.935295,869.064392 
	C117.208984,870.456055 115.476692,871.907043 117.034142,873.510864 
	C118.578659,875.101135 120.879318,875.860413 123.004738,875.326538 
	C125.092384,874.802185 125.780037,872.504089 126.488258,870.693420 
	C129.063965,864.108337 134.471359,860.661560 140.410294,857.778320 
	C142.147644,856.934875 144.012512,856.005493 145.749191,857.674744 
	C145.698471,858.274536 145.787811,858.688171 145.620850,858.899414 
	C145.216827,859.411011 144.772339,860.012207 144.205933,860.255310 
	C138.095123,862.877869 135.912857,868.620239 133.249283,873.970154 
	C132.584091,875.306274 131.876129,876.699951 133.536057,877.971802 
	C136.497864,880.241333 142.279968,878.844177 143.859360,875.503540 
	C145.351913,872.346680 146.972214,869.250183 149.011368,865.564087 
M267.992554,90.417061 
	C274.910614,86.914886 281.828644,83.412704 288.770935,79.898270 
	C283.796478,74.333199 275.952332,72.916626 268.828339,76.227501 
	C261.030579,79.851509 257.196625,87.131821 258.462128,96.352463 
	C261.504486,94.440971 264.427460,92.604485 267.992554,90.417061 
M222.337967,182.972168 
	C226.568222,187.654480 226.268372,188.862946 219.786346,193.255981 
	C225.735733,191.517120 228.763031,188.780197 229.929520,184.366409 
	C230.560150,181.980301 230.014999,180.167633 228.034393,178.707825 
	C222.686203,174.765854 209.022247,176.133408 204.718185,181.035858 
	C202.713547,183.319229 202.627182,185.308075 205.722824,187.521851 
	C205.340561,182.464905 208.144836,181.096527 212.034897,180.905334 
	C215.367340,180.741547 218.683777,180.668472 222.337967,182.972168 
M211.628738,205.651611 
	C209.928299,202.973618 212.169052,197.961090 206.791809,197.237015 
	C206.521774,202.959259 208.650406,208.124832 212.622589,211.376373 
	C212.303574,209.618942 212.013519,208.021042 211.628738,205.651611 
z"/>
<path fill="#000000" opacity="1.000000" stroke="none" 
	d="
M325.152710,237.074646 
	C360.553192,228.580826 385.719055,208.738174 398.312836,174.346344 
	C400.614960,168.059479 401.627136,161.496765 401.686493,154.778397 
	C401.704681,152.718475 400.958160,150.456985 402.576508,148.658463 
	C404.165924,148.343704 404.785095,149.133789 405.135773,150.432327 
	C407.711304,159.970413 407.833221,169.508606 404.695496,178.909897 
	C393.323151,212.984024 369.808197,233.546432 334.867493,241.215683 
	C326.761475,242.994888 318.586060,244.289886 310.030670,242.006348 
	C314.091156,238.015915 320.036804,239.264542 325.152710,237.074646 
z"/>
<path fill="#000000" opacity="1.000000" stroke="none" 
	d="
M252.710114,531.097168 
	C250.314423,503.559113 252.071365,476.836365 259.652893,450.623840 
	C260.237732,448.601837 260.544464,446.379120 262.901276,444.993042 
	C265.471558,446.676727 264.359375,449.150085 264.014008,451.189667 
	C260.732361,470.569733 259.017242,490.077881 259.355865,509.729767 
	C259.703217,529.888123 262.426300,549.767151 266.992279,569.401062 
	C268.007904,573.768372 268.859802,578.173462 269.816345,582.554810 
	C270.173096,584.188843 270.879791,586.079773 268.784363,586.858948 
	C266.545746,587.691406 266.074432,585.617798 265.412964,584.136292 
	C259.120941,570.044067 255.612045,555.210144 253.680191,539.960205 
	C253.325821,537.162903 253.041901,534.356628 252.710114,531.097168 
z"/>
<path fill="#000000" opacity="1.000000" stroke="none" 
	d="
M376.005676,270.973145 
	C381.138367,268.124878 385.653961,265.022400 390.012054,261.654419 
	C391.563263,260.455627 393.341858,257.510284 395.374786,259.592133 
	C397.618683,261.890045 394.513245,263.738373 393.190704,265.317352 
	C386.563019,273.230255 378.214142,278.965057 369.065918,283.573456 
	C356.584106,289.861115 344.060242,296.065308 331.558807,302.314087 
	C323.503357,306.340515 315.669952,310.713287 308.750946,316.574402 
	C307.591431,317.556610 306.120270,319.420105 304.517944,317.632324 
	C303.007721,315.947388 304.924194,314.620422 305.859589,313.366547 
	C313.430359,303.217804 323.763489,296.624542 334.797363,290.924591 
	C348.253906,283.973114 362.548157,278.756256 376.005676,270.973145 
z"/>
<path fill="#000000" opacity="1.000000" stroke="none" 
	d="
M374.654572,413.601715 
	C388.056152,408.262451 400.657715,402.317719 411.075653,392.572693 
	C412.289215,391.437469 413.725769,389.134552 415.566040,391.113464 
	C417.237823,392.911255 415.122375,394.454498 414.017303,395.760834 
	C400.686096,411.519928 383.105194,420.049866 363.581909,425.203064 
	C352.804993,428.047668 341.816376,427.707001 330.853607,426.907990 
	C328.694458,426.750641 325.700134,427.360657 324.226868,423.285095 
	C341.366821,421.304657 358.379333,420.141602 374.654572,413.601715 
z"/>
<path fill="#000000" opacity="1.000000" stroke="none" 
	d="
M268.463318,384.642639 
	C271.612030,366.887329 277.274048,350.504303 286.354675,335.369598 
	C286.781189,334.658752 287.252197,333.964783 287.779449,333.326508 
	C288.550751,332.392853 289.472687,331.556305 290.747375,332.383667 
	C291.967499,333.175568 291.705170,334.278748 291.217987,335.461975 
	C282.787506,355.936981 276.539520,377.051575 272.894196,398.903046 
	C272.131927,403.472260 271.840210,408.119080 271.295349,412.725861 
	C271.037354,414.907440 271.820648,418.226044 268.801544,418.392548 
	C265.765656,418.559967 266.546387,415.141083 266.379639,413.271271 
	C265.533569,403.783295 266.760345,394.404175 268.463318,384.642639 
z"/>
<path fill="#000000" opacity="1.000000" stroke="none" 
	d="
M282.957458,139.023575 
	C289.748199,136.026474 293.638855,136.544601 295.861511,140.899567 
	C297.686432,144.475220 297.351501,148.020691 294.743591,151.062653 
	C292.484650,153.697540 289.400543,154.433578 286.189148,153.147324 
	C282.379822,151.621597 281.588928,148.193466 281.739471,144.554245 
	C281.806091,142.943298 282.451599,141.356308 282.913635,139.375427 
	C282.992950,138.992401 282.957458,139.023575 282.957458,139.023575 
z"/>
<path fill="#000000" opacity="1.000000" stroke="none" 
	d="
M283.007446,138.973724 
	C280.964691,139.745605 281.177582,144.874695 277.755310,142.408127 
	C274.507935,140.067581 276.636749,136.892029 278.417297,134.530624 
	C282.230591,129.473389 287.209473,126.346634 293.814362,127.410431 
	C300.049316,128.414642 305.154877,131.281250 308.224915,137.214676 
	C305.416199,139.343369 304.135956,137.002289 302.638123,136.123428 
	C294.560669,131.383926 288.551300,132.052979 283.137512,138.732285 
	C282.957458,139.023575 282.992950,138.992401 283.007446,138.973724 
z"/>
<path fill="#000000" opacity="1.000000" stroke="none" 
	d="
M387.055847,92.033493 
	C383.007324,95.789566 381.264374,100.395454 379.825989,105.201241 
	C379.328461,106.863487 378.855194,109.321297 376.482361,108.689636 
	C374.154877,108.070045 374.995483,105.881660 375.282471,104.050583 
	C376.057312,99.107109 377.160858,94.310097 379.927765,90.030647 
	C381.235657,88.007782 382.827454,86.349510 385.277252,85.936142 
	C387.658112,85.534393 390.275299,85.585938 391.100830,88.311745 
	C392.018372,91.341171 388.752838,90.781746 387.055847,92.033493 
z"/>
</svg>