<svg version="1.1" id="Layer_1" xmlns="http://www.w3.org/2000/svg" xmlns:xlink="http://www.w3.org/1999/xlink" x="0px" y="0px"
	 width="100%" viewBox="0 0 672 1024" enable-background="new 0 0 672 1024" xml:space="preserve">
<path fill="#000000" opacity="1.000000" stroke="none" 
	d="
M201.368515,144.369263 
	C199.502594,146.526291 197.853470,148.405655 196.259338,150.330521 
	C190.479675,157.309280 191.545319,163.355820 199.389175,168.035248 
	C205.354187,171.593826 212.016464,173.208832 218.708084,174.527100 
	C228.498016,176.455780 238.358368,178.025375 248.179550,179.798737 
	C249.820282,180.094986 251.356689,180.586838 253.014435,179.709412 
	C267.545135,172.018372 282.811707,172.814545 298.310486,175.712128 
	C309.765869,177.853760 321.404266,178.542969 332.983612,179.695099 
	C341.935242,180.585770 350.837036,181.784698 359.078339,185.777115 
	C363.720703,188.026093 368.652832,186.974228 373.366333,186.533981 
	C382.306641,185.698914 391.184235,184.246338 399.623474,180.862610 
	C415.334869,174.563080 422.513580,160.904388 418.812775,144.308136 
	C416.109467,132.185181 411.506989,120.418518 412.626373,107.596336 
	C413.353241,99.270485 414.598724,91.087326 417.207275,83.152931 
	C418.034393,80.637177 419.114685,77.690880 422.448029,78.041962 
	C425.529694,78.366531 426.876221,81.139153 427.136749,83.832382 
	C428.827515,101.311813 437.338654,116.023918 445.757751,130.821457 
	C451.192383,140.373428 456.544525,149.979111 458.392487,161.069168 
	C461.723877,181.061508 455.243683,197.104568 439.052429,209.164734 
	C428.178955,217.263931 415.556274,221.538025 402.683746,225.174484 
	C400.764618,225.716644 398.850830,226.277924 396.934845,226.831192 
	C394.580139,227.511124 393.491180,229.204742 394.358032,231.394333 
	C396.884552,237.775787 394.853210,243.618134 392.185852,249.186172 
	C390.102386,253.535309 390.591309,256.981476 393.521942,260.613281 
	C398.331329,266.573395 402.851959,272.766052 407.637817,278.745880 
	C409.831879,281.487366 412.420990,283.901489 415.999329,284.804230 
	C430.286072,288.408447 433.950104,299.925568 430.769653,312.898895 
	C427.736969,325.269348 421.176239,335.519073 410.917664,343.214600 
	C408.552704,344.988647 407.185486,347.434967 405.633545,349.783997 
	C395.450195,365.197845 376.316589,371.389526 359.077576,364.623901 
	C354.127625,362.681213 349.338409,360.289703 344.599243,357.862366 
	C341.295685,356.170349 339.619476,357.116821 338.866882,360.528992 
	C335.320282,376.609924 337.501892,391.342804 349.233093,403.722961 
	C356.201294,411.076630 363.875031,417.691406 368.805267,426.913086 
	C373.204437,435.141388 374.307465,443.923676 375.229736,452.838745 
	C375.846100,458.797028 377.837891,464.229370 380.966522,469.187073 
	C387.188599,479.046661 393.636322,488.764709 400.046875,498.504333 
	C407.806610,510.293915 419.880524,517.028442 430.981598,524.943970 
	C442.733368,533.323608 456.344421,538.218994 468.650360,545.537903 
	C478.939880,551.657654 487.441223,559.664612 495.069672,568.902283 
	C507.661743,584.150696 523.301575,595.169617 542.717163,600.092773 
	C556.722656,603.644104 567.514099,598.171753 575.875732,587.179138 
	C583.745605,576.833069 585.547546,565.270020 578.981384,553.978638 
	C572.166626,542.259705 561.752075,534.234070 548.389832,530.554321 
	C535.578735,527.026428 525.068604,520.070129 517.224060,509.302277 
	C501.846100,488.193848 505.693512,455.837494 525.517639,438.964111 
	C525.898193,438.640198 526.258362,438.273010 526.686218,438.027222 
	C529.198547,436.583435 531.638611,433.740051 534.752563,436.027313 
	C537.613464,438.128723 536.080627,441.185638 535.318726,443.868927 
	C534.089661,448.197571 532.987244,452.449158 533.615479,457.102203 
	C534.964355,467.091644 540.106506,473.549652 549.918640,476.304718 
	C554.085083,477.474579 558.101440,479.106018 561.690002,481.652527 
	C570.073425,487.601624 573.689148,495.799164 572.519165,505.859314 
	C571.782715,512.190918 573.780579,516.718140 578.867493,520.490784 
	C587.840637,527.145630 596.570496,534.007874 601.376160,544.719238 
	C611.140015,566.481995 606.282776,595.293701 589.683228,612.109863 
	C572.783936,629.229675 545.762512,633.877625 523.055786,623.582153 
	C521.708435,622.971191 520.319580,622.451660 519.057495,621.933655 
	C517.257141,623.041443 517.379578,624.444824 517.794617,625.988647 
	C525.143372,653.322144 527.688171,681.169922 527.572632,709.424622 
	C527.528625,720.190491 531.097717,730.366211 537.877502,739.115723 
	C546.184631,749.836365 552.211914,761.359192 552.688843,775.441223 
	C552.906067,781.856201 553.242065,788.364258 554.606689,794.762756 
	C558.144104,811.348633 565.413879,826.215759 575.176392,839.887817 
	C580.556458,847.422485 584.780579,855.094177 583.399231,864.778381 
	C583.057617,867.173584 584.114563,869.360107 585.035278,871.496887 
	C586.154236,874.093811 587.401184,876.635498 588.585571,879.204285 
	C595.062561,893.252747 595.108582,904.966858 574.321533,908.031860 
	C568.934937,908.826111 563.472351,910.282715 558.061707,908.048767 
	C557.024597,907.620605 556.139526,907.833130 555.208984,908.293823 
	C546.781128,912.466736 538.908081,908.705322 531.110840,906.236328 
	C527.328613,905.038696 525.999512,901.314270 525.782410,897.350220 
	C525.329407,889.075684 528.455078,881.674561 531.408630,874.264954 
	C532.864807,870.611755 533.899109,867.268188 532.265015,863.265137 
	C531.377319,861.090515 531.547668,858.313049 531.808594,855.868103 
	C533.550598,839.540100 528.091919,825.041443 520.493591,811.133301 
	C518.106201,806.763245 515.043518,802.763672 512.319519,798.575317 
	C509.869049,794.807678 506.554016,791.310974 505.196777,787.177124 
	C500.678101,773.414062 490.781799,763.758972 481.008209,754.016785 
	C468.957520,742.004883 457.500671,729.471741 446.562469,716.454346 
	C441.335785,710.234131 434.467316,706.677673 427.003510,703.990356 
	C425.189606,703.337280 423.487518,703.277405 421.658142,703.912476 
	C406.921997,709.028076 395.776520,718.814209 386.820160,731.199768 
	C381.335724,738.784058 382.757172,747.371704 385.928528,755.143738 
	C390.447662,766.218811 387.496429,775.117920 380.478851,783.767578 
	C367.023499,800.352234 354.160309,817.363037 345.664551,837.182068 
	C342.910309,843.607300 340.440460,850.154358 337.831146,856.641968 
	C335.585297,862.225891 332.306458,866.904602 326.563904,869.403442 
	C322.835052,871.026001 321.159241,874.189392 320.285309,877.897644 
	C319.217163,882.430115 318.482086,887.056885 317.150787,891.507629 
	C315.334778,897.578735 311.557648,902.193359 305.265656,903.986206 
	C290.114685,908.303223 274.640564,908.538940 259.219147,906.255432 
	C249.621338,904.834106 247.646515,900.878174 251.157120,891.882935 
	C255.734207,880.154846 262.763702,870.123474 273.353638,863.008667 
	C278.402710,859.616455 282.112457,855.526550 283.599060,849.455017 
	C284.654388,845.144775 287.373047,841.717102 290.588013,838.698181 
	C305.016602,825.148926 314.938019,808.392090 324.285614,791.236816 
	C326.126740,787.857849 327.352753,784.227234 328.109161,780.445129 
	C329.778992,772.095764 328.583313,764.735474 321.909149,758.574829 
	C307.864532,745.610779 300.412811,729.164124 297.674866,710.466553 
	C297.157227,706.931458 295.838104,704.738953 292.205811,703.765442 
	C285.460876,701.957520 278.772186,699.919128 272.127228,697.769104 
	C269.535431,696.930420 267.999695,697.716492 266.761475,699.888367 
	C264.601807,703.676453 262.942261,707.652771 262.095795,711.942505 
	C260.320038,720.941467 256.654541,729.083313 250.712616,736.076599 
	C235.706909,753.737549 231.431519,774.251404 233.952866,796.780029 
	C234.598572,802.549561 234.322037,808.431396 234.316559,814.261536 
	C234.312881,818.178772 232.179077,821.278320 229.606033,823.919189 
	C227.070892,826.521118 226.211044,829.415466 226.300034,832.956543 
	C226.467041,839.601013 226.353149,846.252686 226.346252,852.901367 
	C226.339752,859.176758 223.813644,863.988525 218.628922,867.729797 
	C201.373199,880.181946 182.718170,881.424072 163.109680,874.910522 
	C157.037201,872.893311 154.358826,868.682190 154.692734,862.266785 
	C155.245392,851.648254 159.559464,842.243347 165.067657,833.434937 
	C169.452209,826.423523 173.213318,819.557861 173.024353,810.800659 
	C172.893143,804.720825 176.208267,799.341858 179.608337,794.320435 
	C193.334518,774.049072 198.757950,751.543335 198.211182,727.251038 
	C197.912048,713.961060 197.563370,700.562744 202.107346,687.720703 
	C203.051575,685.052124 202.307571,683.674561 199.642487,682.906250 
	C174.654572,675.702820 158.331177,658.315491 145.651733,636.729858 
	C143.761383,633.511658 142.168335,633.548523 140.213440,636.493530 
	C138.741501,638.710938 137.373764,641.013123 135.734528,643.100891 
	C130.078949,650.303650 129.869949,652.083069 135.443039,659.242126 
	C138.088837,662.640869 141.310410,665.599060 144.338455,668.690918 
	C150.264191,674.741394 154.091827,681.753113 154.157898,690.402954 
	C154.177597,692.984253 155.395050,694.320679 157.550690,695.344971 
	C162.723114,697.802673 167.206085,701.206848 171.104111,705.419800 
	C185.223221,720.679688 183.477585,745.757324 167.518997,759.054810 
	C152.186661,771.830444 133.985001,764.310181 124.853790,747.418945 
	C121.585777,741.373779 120.484344,734.513672 118.798393,727.910583 
	C118.186188,725.512939 117.240608,723.518555 115.095947,722.253296 
	C102.706070,714.943176 99.350998,702.986511 98.969162,689.850647 
	C98.731239,681.665894 98.009735,673.585632 96.578415,665.555420 
	C95.151077,657.547546 90.958740,651.254333 85.062050,645.632324 
	C72.960426,634.094482 68.292679,619.826965 71.767319,603.359741 
	C73.432945,595.465942 78.755737,589.492981 83.864388,583.516296 
	C90.007339,576.329468 96.891060,569.650208 98.927292,559.767334 
	C99.542999,556.778931 99.332001,554.380432 97.829460,551.725708 
	C90.164215,538.182617 85.718132,523.591919 85.019936,508.052551 
	C84.488281,496.219849 87.593170,485.001465 92.229576,474.163910 
	C103.144455,448.650391 117.208214,424.863068 131.980423,401.464172 
	C132.995117,399.856934 133.632523,398.301239 133.683060,396.376434 
	C134.959183,347.763580 151.879639,305.144867 182.938263,267.943634 
	C186.829269,263.283081 186.756088,263.161316 181.408295,259.854340 
	C171.173157,253.525085 162.853439,245.231186 156.340851,235.146851 
	C152.440460,229.107361 153.720810,226.312103 160.871567,225.750809 
	C170.349258,225.006836 179.746933,224.010086 188.836441,221.028397 
	C190.789276,220.387802 190.822525,220.489166 193.183075,218.539062 
	C190.337036,216.590912 186.988968,216.351715 184.001099,215.223343 
	C170.685638,210.194733 158.297455,203.680786 150.534149,191.177277 
	C139.926636,174.092865 143.017731,152.280701 157.703339,136.418854 
	C166.944962,126.437073 178.163467,118.870377 188.875595,110.675789 
	C199.325043,102.682137 209.861359,94.819969 219.211441,85.459892 
	C227.638245,77.024078 233.823792,67.365913 237.400284,56.013783 
	C237.900665,54.425526 238.288940,52.787148 238.949493,51.267796 
	C239.842758,49.213223 240.247650,46.493008 243.382248,46.637554 
	C246.494690,46.781067 247.528290,49.191223 248.141739,51.666836 
	C249.886688,58.708786 249.709045,65.900093 249.005066,73.015755 
	C247.126404,92.004967 237.675217,107.146461 224.513977,120.385559 
	C216.764832,128.180527 209.237610,136.196121 201.368515,144.369263 
M236.103287,740.709717 
	C244.963669,728.927307 252.681793,716.611877 256.195099,701.986084 
	C257.478119,696.645020 260.754700,692.066223 264.070251,687.606934 
	C273.283844,675.214905 285.056427,665.323364 295.847107,654.461060 
	C306.586975,643.649963 318.702454,633.740723 322.171326,617.646973 
	C324.052551,608.919067 328.864136,601.837341 334.913513,595.397095 
	C345.079041,584.574829 351.629669,571.820618 354.361603,557.184937 
	C356.175140,547.469604 355.823395,537.631348 355.934479,527.816772 
	C355.954071,526.086914 355.166931,523.899963 357.816498,522.269531 
	C365.818329,548.757751 364.154907,573.257019 346.557983,595.260071 
	C339.887268,603.601135 332.752106,611.610229 330.339905,622.439697 
	C327.691193,634.330811 321.073578,643.712097 312.010437,651.507874 
	C301.637573,660.430237 292.884338,670.988586 282.808411,680.208435 
	C281.596069,681.317749 280.721893,682.797241 279.693451,684.107117 
	C277.449738,686.964844 278.105621,688.987671 281.483124,690.165649 
	C292.496521,694.006897 303.613708,697.443359 315.273071,698.744812 
	C336.873688,701.156006 358.141357,699.287903 379.077911,693.607300 
	C392.874237,689.864014 406.641052,689.444214 420.517029,693.136536 
	C422.599487,693.690674 424.808228,694.835632 427.896973,693.420166 
	C417.028687,680.351685 403.536530,670.944885 390.774567,660.623474 
	C394.825317,660.566162 398.315948,661.927673 401.762360,663.477417 
	C417.800995,670.689392 430.452026,682.310242 441.649323,695.400635 
	C459.193909,715.911377 476.432922,736.662170 495.505402,755.817078 
	C501.582153,761.920044 507.855042,768.071350 510.510773,776.734924 
	C512.142273,782.057129 515.148560,786.659729 518.222717,791.237488 
	C522.122009,797.044067 526.209717,802.758728 529.642334,808.837097 
	C536.957031,821.789490 541.096497,835.826172 541.157776,850.708984 
	C541.187439,857.918213 539.681641,865.095886 548.958984,869.243286 
	C543.045654,871.748535 539.681274,875.412292 537.958984,880.595215 
	C536.749451,884.235168 535.636841,887.874878 534.960510,891.660706 
	C534.001587,897.028198 535.622192,899.042419 542.274231,900.424255 
	C548.672058,901.753296 550.426147,900.662109 551.632812,895.061829 
	C552.766113,889.802063 553.561829,884.404846 556.341675,879.130737 
	C559.444275,882.636536 559.630188,886.620544 560.662598,890.191040 
	C563.718140,900.758606 564.669739,901.385376 575.542297,898.446655 
	C575.862976,898.359985 576.170227,898.224670 576.487793,898.125000 
	C582.569275,896.216980 584.143921,893.424011 582.546509,887.181274 
	C581.374207,882.599609 578.820984,878.661499 576.548706,874.590881 
	C574.918396,871.670227 572.777649,868.440979 574.083557,865.197510 
	C577.154846,857.569031 573.570496,852.258545 569.197937,846.644165 
	C554.419800,827.669189 545.117920,806.369751 543.798584,782.143799 
	C543.060425,768.590088 539.804626,756.326782 530.571045,745.903259 
	C522.250366,736.510376 519.759094,724.907166 518.562988,712.713074 
	C517.277039,699.602661 518.228882,686.453979 516.827698,673.332214 
	C514.184570,648.580322 509.237885,624.400879 500.890747,600.956604 
	C492.432526,577.200378 478.010040,558.499634 454.385040,548.154968 
	C443.191803,543.253723 432.719025,537.126709 422.367859,530.754883 
	C411.126770,523.835266 400.128326,516.559265 392.862518,505.050415 
	C386.990997,495.750153 380.666473,486.770386 374.217590,477.860138 
	C369.284607,471.044373 365.846588,463.535004 365.577271,454.815582 
	C365.041229,437.460754 357.641296,423.529388 344.298401,412.510529 
	C338.867798,408.025879 334.431183,402.633942 331.619446,396.017151 
	C326.437500,383.822662 326.771790,371.413879 329.712708,358.798706 
	C331.359497,351.734924 330.066589,350.374237 322.897736,351.491760 
	C313.315552,352.985443 304.110931,355.740326 295.289886,359.869720 
	C256.835449,377.871399 230.763855,407.889801 212.505142,445.360504 
	C204.019272,462.775238 198.105835,481.169189 193.179657,499.888092 
	C192.516068,502.409637 192.475983,505.384338 188.946854,508.160431 
	C188.788254,495.577698 190.060196,484.312988 193.260483,473.401306 
	C211.377975,411.628265 248.416321,366.825256 310.728210,344.570160 
	C308.221680,342.040863 305.627533,341.922943 303.309784,341.376099 
	C298.456024,340.230988 293.552155,339.288666 288.651733,338.352905 
	C276.891907,336.107361 265.049438,334.219086 254.323578,328.364716 
	C233.705246,317.110992 226.053619,295.257599 235.333008,273.730164 
	C235.998154,272.187073 236.173660,270.059662 239.159103,269.724487 
	C239.487167,277.092133 240.012115,284.336060 240.073715,291.583923 
	C240.131653,298.397980 242.430038,304.265717 246.413651,309.619446 
	C254.056595,319.891113 265.115845,324.201630 276.975739,327.064972 
	C293.278656,331.000916 310.136688,332.475311 325.918640,338.784393 
	C337.407196,343.377136 348.193634,349.298615 359.234039,354.769226 
	C372.822174,361.502258 381.197632,359.722687 394.746155,349.579865 
	C396.051208,348.602875 397.226746,347.316132 396.999481,344.997894 
	C391.965454,341.919312 386.591095,341.874054 380.994965,343.814728 
	C377.854462,344.903748 374.743652,346.199951 371.509308,346.875122 
	C359.796265,349.320160 350.933685,345.956604 345.223633,337.171936 
	C343.408173,334.378937 342.838898,331.553925 344.786743,328.552429 
	C347.708405,329.097321 348.700348,331.411102 350.079468,333.179626 
	C355.546326,340.190033 362.482605,342.303955 370.920715,339.709747 
	C373.466034,338.927216 376.037872,338.210022 378.531616,337.285126 
	C384.467346,335.083496 390.608612,334.319153 396.666077,335.997620 
	C402.762115,337.686798 407.220459,335.136017 410.993713,331.215729 
	C416.490234,325.504944 420.566711,318.740936 422.234070,310.905609 
	C423.013947,307.240814 423.936371,303.191406 421.056458,299.613892 
	C413.449005,306.412354 407.126221,307.234039 397.928619,302.952271 
	C394.916534,301.550110 391.932007,299.981995 388.772980,299.023376 
	C380.917725,296.639679 373.072418,303.548950 374.180206,311.675568 
	C374.483521,313.900726 375.213043,315.813721 377.735657,316.339386 
	C382.181030,308.367065 392.761169,306.249573 399.211487,311.824036 
	C401.821106,314.079315 402.474030,316.877533 401.126465,319.929321 
	C399.582062,323.426971 396.698029,321.845245 394.742004,320.756226 
	C389.412079,317.788666 383.800385,318.099426 378.232452,318.955292 
	C372.995728,319.760254 368.551147,318.437469 366.209839,313.952393 
	C363.777405,309.292786 365.516388,304.540741 368.746246,300.530670 
	C376.199646,291.276855 385.960999,289.529938 398.304810,295.224579 
	C402.538879,297.177856 406.659607,299.467133 411.587708,298.921326 
	C413.566071,298.702209 415.531128,298.513336 416.162567,296.089783 
	C399.762177,288.591156 373.579010,252.856430 376.513062,241.820908 
	C378.782654,243.218292 379.230804,246.614655 382.157898,247.033295 
	C388.526093,240.327332 388.195190,233.487213 381.082001,228.386749 
	C376.164001,224.860382 373.526825,220.010300 372.192902,214.370468 
	C370.435608,206.940842 365.902069,201.664383 359.837463,197.431274 
	C352.204865,192.103745 343.436798,190.266586 334.436188,189.355301 
	C320.530243,187.947372 306.690857,186.120438 292.926849,183.682159 
	C284.025482,182.105286 275.135681,181.272781 266.254486,184.129196 
	C262.666473,185.283188 261.370941,187.054993 262.720764,190.766266 
	C264.344452,195.230515 264.794434,199.868134 263.434387,204.508118 
	C260.947235,212.993240 257.048889,220.536972 248.999100,225.087708 
	C249.930374,228.733368 254.116959,230.589569 253.809891,234.877090 
	C249.448563,235.810791 246.598495,233.131332 243.853745,230.995804 
	C235.343628,224.374588 225.866745,221.802689 215.261139,223.367599 
	C211.811600,223.876587 208.347656,224.464920 204.988922,225.379272 
	C194.395111,228.263229 183.835541,231.275833 173.292236,234.340256 
	C170.825912,235.057114 167.841873,236.058289 171.034698,239.317001 
	C183.080063,251.610870 197.137589,260.051300 214.810501,260.569702 
	C223.367599,260.820679 230.918365,256.927094 238.413269,253.218536 
	C240.646133,252.113693 242.921677,250.177826 246.021576,252.077545 
	C245.347855,255.922607 242.626099,258.171844 240.019806,260.377014 
	C228.594620,270.043610 215.097031,271.041229 201.314194,268.345856 
	C196.228668,267.351349 193.577362,268.716644 190.798676,272.250366 
	C183.995651,280.902039 177.534225,289.781891 171.749756,299.154449 
	C150.024673,334.355408 139.734131,372.552612 142.782990,413.881409 
	C144.007080,430.474518 147.908630,446.717896 153.478210,462.495117 
	C161.564590,485.401855 166.639053,508.877899 166.187546,533.322205 
	C166.148346,535.444275 166.741135,537.866089 163.384308,540.780457 
	C159.400467,498.393066 139.824493,461.244843 133.765305,419.274933 
	C131.945328,421.332825 131.203903,421.995972 130.672134,422.798126 
	C118.013397,441.893494 107.592255,462.184875 99.136459,483.437775 
	C94.946220,493.969543 94.212418,505.085724 96.061615,516.338806 
	C98.679611,532.270264 105.979172,546.324890 113.884125,560.041565 
	C123.367088,576.496460 133.368011,592.667969 141.143555,610.031250 
	C147.394165,623.989258 155.307022,636.917664 165.523087,648.195129 
	C175.746262,659.480408 187.196381,669.327454 202.379669,673.823730 
	C207.765594,675.418701 210.797592,673.767578 213.433578,669.246033 
	C221.318604,655.720703 224.426910,640.768738 226.686890,625.587341 
	C229.486023,606.784119 236.840317,590.304504 249.810501,576.196777 
	C264.894653,559.789734 284.300323,550.976990 304.675598,543.658081 
	C305.554413,543.342407 306.533478,542.743469 307.427338,543.901062 
	C307.209045,545.815674 305.489594,546.475220 304.165466,547.285645 
	C297.916840,551.109863 291.614777,554.848816 285.285858,558.539490 
	C266.738953,569.355042 251.503708,583.361023 242.254288,603.130798 
	C237.185410,613.965149 235.371857,625.651062 233.369263,637.297913 
	C230.987595,651.149353 228.113571,665.142029 219.409195,676.427856 
	C209.795578,688.892578 206.430817,702.629089 206.314835,717.878052 
	C206.255508,725.678345 207.342255,733.394470 206.547012,741.283630 
	C204.480728,761.782410 200.133026,781.329102 187.618561,798.316589 
	C184.329575,802.781128 181.893524,807.768066 182.249084,813.575684 
	C182.665848,820.382874 180.412811,826.300781 176.702057,831.859680 
	C174.207031,835.597412 171.702682,839.367493 169.653030,843.354675 
	C166.767487,848.967957 163.876511,854.662476 164.209473,861.300049 
	C164.309357,863.291443 164.842636,865.010742 166.981354,865.508728 
	C168.997086,865.978088 169.965118,864.479187 170.841110,863.005249 
	C172.988068,859.392761 174.045013,855.334045 175.592880,851.474854 
	C177.426544,846.903076 179.434860,842.403137 183.606323,839.144958 
	C185.109604,841.228882 183.988312,842.877197 183.543747,844.563171 
	C181.846695,850.999146 179.992004,857.400452 178.537949,863.891296 
	C177.439499,868.794678 179.350433,870.730164 184.299301,870.506592 
	C193.977570,870.069336 202.883652,867.488098 211.015991,861.974182 
	C215.148087,859.172668 217.204117,855.537048 217.605148,850.853088 
	C217.874146,847.711060 217.768402,844.519714 217.604660,841.362061 
	C217.366623,836.771240 215.920593,832.896057 211.015930,831.222473 
	C209.902969,830.842712 208.332199,830.488892 208.628815,828.277405 
	C211.262604,826.863770 214.981155,828.776917 217.336258,825.949646 
	C221.554230,820.885986 225.370331,815.756409 224.817001,808.570496 
	C224.446564,803.760010 224.899704,798.874695 224.376999,794.089233 
	C222.315186,775.212585 226.221176,757.692932 236.103287,740.709717 
M367.657501,705.324829 
	C348.240112,709.683838 328.609619,710.291748 308.700897,708.048401 
	C307.936981,713.341797 309.128510,717.903076 309.900543,722.417114 
	C311.988159,734.623413 318.979126,743.979370 327.734558,752.329163 
	C337.438690,761.583862 340.752228,772.746765 336.034332,785.546204 
	C328.031219,807.258301 315.405731,826.101074 299.390198,842.699097 
	C296.699280,845.487915 293.595062,848.212463 292.625824,851.845520 
	C290.251312,860.746582 284.129089,866.218079 277.069641,871.248413 
	C269.411682,876.705322 264.234436,884.232361 260.499146,892.766968 
	C259.825256,894.306763 258.394531,896.488647 261.112488,897.352783 
	C263.478607,898.104980 266.233002,898.294373 267.530792,895.295715 
	C268.116577,893.942200 268.206940,892.381836 268.605682,890.938477 
	C270.702240,883.349426 276.282867,878.192078 281.565094,871.161743 
	C281.905731,875.651123 280.495605,878.136963 279.338043,880.626038 
	C277.364349,884.869995 275.688019,889.224854 274.550903,893.746582 
	C273.334534,898.583496 274.398041,900.071228 279.342285,899.608643 
	C285.614075,899.021973 291.810669,897.675049 298.066681,896.864319 
	C303.796143,896.121765 307.653961,893.119507 309.417480,887.722534 
	C311.024292,882.805298 313.658539,877.543762 307.151886,873.828796 
	C306.465393,873.436890 306.103790,872.544250 306.524719,871.630249 
	C318.786652,867.505737 327.014771,860.964722 330.706238,850.830627 
	C340.290894,824.518433 354.540100,800.983643 372.642395,779.799255 
	C378.546997,772.889404 380.115356,766.579773 376.775269,757.715088 
	C371.071014,742.575867 373.296539,728.603455 386.643250,717.647583 
	C391.395844,713.746399 395.735626,709.338013 400.207825,705.102051 
	C401.589142,703.793640 403.600647,702.822876 403.329590,699.902893 
	C399.048645,698.490601 394.614624,698.827148 390.277496,699.802856 
	C382.978149,701.444885 375.745575,703.383972 367.657501,705.324829 
M103.344177,572.920776 
	C99.162033,579.755432 94.826744,586.601196 89.198563,592.242432 
	C74.869865,606.604370 79.642441,628.838257 91.937592,639.522278 
	C99.547577,646.135132 103.615845,654.684021 105.408249,664.515869 
	C107.082237,673.698059 107.733131,682.979492 108.169487,692.256714 
	C108.721565,703.994263 113.095810,712.789917 124.768204,716.973938 
	C127.729210,718.035278 130.561234,719.544006 133.295914,721.119141 
	C135.205032,722.218750 137.314377,723.390442 137.839798,726.293457 
	C135.862686,726.293457 134.218719,726.303406 132.574921,726.291260 
	C129.397110,726.267822 127.767921,727.780640 128.479584,730.963806 
	C129.978165,737.666992 131.964218,744.266541 136.606354,749.533203 
	C140.797195,754.287903 146.085922,756.863586 153.918640,756.376831 
	C149.566025,751.544800 146.435410,747.314026 143.606628,742.854614 
	C138.495117,734.796814 137.674179,732.563416 139.038620,728.584167 
	C141.215134,729.526917 141.909470,731.708374 143.090744,733.416748 
	C147.185455,739.338562 151.591125,744.957397 157.603867,749.088074 
	C160.849350,751.317810 163.661133,751.193115 166.239441,747.816284 
	C175.584045,735.577515 172.814758,716.909119 160.144745,708.375916 
	C154.740753,704.736328 149.058105,702.033142 142.962082,707.685913 
	C142.009689,703.448486 143.242340,699.928406 144.092773,696.420349 
	C146.110901,688.095215 144.087753,680.947205 138.213928,674.820312 
	C136.484497,673.016357 134.671448,671.292969 132.921875,669.507996 
	C122.252640,658.622925 116.480217,645.823486 117.676071,630.325745 
	C117.803612,628.672974 117.167419,626.599182 120.140594,625.665161 
	C121.260307,629.433655 122.234802,633.057678 123.425781,636.609070 
	C124.321884,639.281128 125.990479,640.547424 128.701431,638.548279 
	C132.503433,635.744568 136.254501,621.228333 134.221725,616.935425 
	C127.441673,602.616699 119.652618,588.844971 111.365448,575.357117 
	C110.015495,573.159912 109.113266,570.515625 106.619026,568.997498 
	C105.032104,569.650330 104.635384,571.235535 103.344177,572.920776 
M217.089371,212.322189 
	C223.702881,212.956253 230.379593,212.701263 236.941254,214.152939 
	C247.668808,216.526260 249.530518,215.457794 253.684494,205.169434 
	C254.238739,203.796738 254.538010,202.310028 254.854187,200.854141 
	C256.353851,193.949188 254.418045,190.622299 247.701294,189.251282 
	C240.376312,187.756104 232.982468,186.601334 225.629990,185.236984 
	C214.847168,183.236099 203.818283,181.903870 194.242004,175.974411 
	C182.400528,168.642334 180.101776,156.939651 188.132080,145.628342 
	C193.073395,138.668106 199.448257,132.987595 205.253555,126.795494 
	C215.147202,116.242645 225.784378,106.284210 232.964890,93.478683 
	C236.009384,88.049202 238.466141,82.395370 239.272873,75.787521 
	C236.524475,76.464180 236.006973,78.408424 235.000916,79.845497 
	C230.109711,86.832260 224.424652,93.089821 218.181610,98.898514 
	C206.685547,109.594780 193.694061,118.378464 181.335724,127.968979 
	C172.187454,135.068375 163.795914,142.885086 157.643341,152.764206 
	C150.818848,163.722260 150.947968,174.879517 158.197906,185.562607 
	C164.364960,194.650009 173.171692,200.551651 183.229324,204.725937 
	C193.801636,209.113815 204.905807,211.033737 217.089371,212.322189 
M575.345642,600.917542 
	C552.233704,618.233276 531.037720,608.347412 508.999420,595.009705 
	C510.922241,601.934143 512.661316,607.072266 517.585693,610.627808 
	C531.547241,620.708374 557.737183,622.555664 573.581787,613.234924 
	C602.628662,596.148010 604.680725,548.483826 578.648499,532.520569 
	C576.247620,531.048279 574.114990,529.140381 571.846313,527.450256 
	C566.949524,523.802246 564.604004,518.916138 564.666992,512.827515 
	C564.697998,509.830688 564.750427,506.829895 564.638367,503.836670 
	C564.388916,497.173981 561.738281,491.928253 555.421143,489.047760 
	C551.031006,487.046051 546.582458,485.173004 542.177551,483.203186 
	C532.676941,478.954590 526.589783,472.105377 525.387939,461.407776 
	C525.197876,459.715729 525.333313,457.766144 523.942566,456.324432 
	C522.140686,457.151642 521.559509,458.786926 520.997131,460.298859 
	C515.532471,474.990662 515.923401,489.199799 524.304199,502.881805 
	C531.149597,514.057251 541.973267,519.120728 553.829590,522.707703 
	C568.957031,527.284180 580.498779,536.632751 587.650330,550.467285 
	C595.602295,565.850159 592.008118,587.372437 575.345642,600.917542 
M449.595947,174.099533 
	C450.102142,164.919785 448.174103,156.237244 444.065826,148.056931 
	C438.916168,137.802902 433.549896,127.656586 428.485291,117.361382 
	C426.397827,113.118080 424.852081,108.608292 423.036774,104.163002 
	C420.910034,105.195457 421.375946,106.854164 421.300446,108.249329 
	C421.029266,113.259521 421.359467,118.226089 422.727020,123.079468 
	C424.709381,130.114868 426.866394,137.104294 428.697540,144.178391 
	C433.225555,161.670914 425.224579,178.722214 409.023712,186.704773 
	C399.961578,191.169907 390.190155,193.149887 380.445587,195.288223 
	C377.944946,195.836975 375.122162,195.780746 373.167084,198.746994 
	C377.069427,203.080643 380.838226,207.658630 381.868225,213.539871 
	C382.615295,217.805420 384.916626,219.082840 388.820007,218.656250 
	C401.367462,217.284973 413.097992,213.185440 424.345581,207.692581 
	C438.085876,200.982437 448.179108,191.305740 449.595947,174.099533 
z"/>
<path fill="#000000" opacity="1.000000" stroke="none" 
	d="
M297.216919,440.376831 
	C298.452942,439.682190 299.137970,438.410339 301.065613,439.318878 
	C298.949249,444.479492 294.965912,448.245239 291.364624,452.176453 
	C279.086121,465.579803 264.692505,476.754883 251.830185,489.581299 
	C227.371704,513.971497 214.064240,543.477844 209.378021,577.339661 
	C207.230545,592.857056 209.239273,608.191162 210.736862,623.569214 
	C210.849319,624.724121 211.004257,625.880127 211.016754,627.036926 
	C211.021561,627.482056 210.683502,627.930908 210.434326,628.543640 
	C207.960144,628.425537 207.853287,626.249695 207.189133,624.768311 
	C200.663406,610.212769 199.648438,594.746826 201.007736,579.247742 
	C202.884216,557.851562 208.711685,537.450500 219.102386,518.476990 
	C228.938858,500.515503 243.257828,486.355560 257.856476,472.426819 
	C270.051178,460.791718 283.610107,450.818451 297.216919,440.376831 
z"/>
<path fill="#000000" opacity="1.000000" stroke="none" 
	d="
M168.781067,413.028748 
	C170.214645,369.445435 183.044388,330.378815 208.504776,295.770447 
	C209.309647,296.058197 210.114502,296.345917 210.919373,296.633636 
	C197.943527,321.255676 187.234940,346.653412 181.520752,373.971954 
	C175.849304,401.086182 175.796295,428.502747 176.089447,456.081665 
	C169.847748,442.409607 168.489059,428.102234 168.781067,413.028748 
z"/>
<path fill="#000000" opacity="1.000000" stroke="none" 
	d="
M150.265640,566.781006 
	C158.485458,578.829285 164.370728,591.638306 169.429810,604.883362 
	C174.416931,617.940063 179.769562,630.839172 187.494110,642.594666 
	C188.014099,643.386047 188.814148,644.160339 187.975693,645.766846 
	C184.229004,643.849854 181.755035,640.597595 179.197983,637.541687 
	C171.533920,628.382568 166.384186,617.823425 161.948624,606.800903 
	C154.171738,587.475037 144.463760,569.111328 133.461227,551.427124 
	C132.602829,550.047424 131.429962,548.773987 131.386414,546.960144 
	C135.481857,547.899719 140.896866,553.579041 150.265640,566.781006 
z"/>
<path fill="#000000" opacity="1.000000" stroke="none" 
	d="
M324.657349,242.372330 
	C328.358704,248.077484 333.355377,252.696396 334.803955,260.421387 
	C327.225555,258.940826 322.481964,255.162567 319.084442,249.913208 
	C316.129974,250.347305 314.691132,252.435760 312.632233,253.478683 
	C306.667084,256.500336 301.035309,254.647110 299.855286,248.197449 
	C298.744080,242.124023 295.989624,240.064133 290.203339,241.041931 
	C288.973389,241.249771 287.475311,241.298508 286.738220,239.761871 
	C292.824646,231.758698 317.040680,233.256104 324.657349,242.372330 
z"/>
<path fill="#000000" opacity="1.000000" stroke="none" 
	d="
M288.880096,395.155273 
	C277.499786,417.779236 258.336395,432.057892 237.946335,445.115509 
	C252.256897,424.998779 270.601471,408.784790 288.253601,391.915588 
	C289.793304,393.353058 289.377502,394.115417 288.880096,395.155273 
z"/>
<path fill="#000000" opacity="1.000000" stroke="none" 
	d="
M209.420380,253.340149 
	C207.068466,253.439560 205.082611,253.662155 202.627975,252.413330 
	C206.953552,247.980682 212.360855,246.291641 218.176270,243.397980 
	C207.285477,240.070755 196.400192,239.770248 186.371292,235.035995 
	C192.991943,230.440826 233.031433,237.050903 241.522339,244.264725 
	C230.110764,246.063538 220.181778,250.382477 209.420380,253.340149 
z"/>
<path fill="#000000" opacity="1.000000" stroke="none" 
	d="
M447.347473,594.827148 
	C450.746277,611.789001 452.795532,628.392273 449.281952,645.173340 
	C448.529633,648.766541 448.026642,652.598694 444.749878,655.670471 
	C443.269806,653.360474 443.864532,651.169922 443.849426,649.141968 
	C443.736633,633.994995 443.869568,618.843872 443.548828,603.702026 
	C443.426392,597.922729 442.228058,592.172424 441.698853,586.392578 
	C441.459930,583.783325 441.658356,581.133911 442.159363,578.418274 
	C445.565033,583.252502 445.834778,589.021667 447.347473,594.827148 
z"/>
<path fill="#000000" opacity="1.000000" stroke="none" 
	d="
M306.488403,212.972916 
	C314.832092,211.778320 321.472443,214.618118 326.810272,220.123764 
	C333.730316,227.261337 340.214935,234.817383 344.268127,244.399536 
	C341.041809,245.766037 339.889191,243.506607 338.495209,242.120102 
	C333.771332,237.421677 329.079681,232.688309 324.474487,227.873810 
	C318.706390,221.843491 312.056061,217.886017 303.383636,218.238190 
	C302.266693,218.283554 301.018188,218.353149 299.985809,216.765533 
	C300.787964,213.815582 303.670868,213.777618 306.488403,212.972916 
z"/>
</svg>